<?xml version="1.0" standalone="no"?>
<!DOCTYPE svg PUBLIC "-//W3C//DTD SVG 20010904//EN"
 "http://www.w3.org/TR/2001/REC-SVG-20010904/DTD/svg10.dtd">
<svg version="1.0" xmlns="http://www.w3.org/2000/svg"
 width="1500.000000pt" height="1500.000000pt" viewBox="0 0 1500.000000 1500.000000"
 preserveAspectRatio="xMidYMid meet">
<metadata>
Created by potrace 1.14, written by Peter Selinger 2001-2017
</metadata>
<g transform="translate(0.000000,1500.000000) scale(0.100000,-0.100000)"
fill="#000000" stroke="none">
<path d="M7385 12902 c-191 -100 -255 -136 -255 -144 0 -4 -7 -5 -15 -2 -8 4
-15 1 -15 -5 0 -6 -5 -11 -10 -11 -14 0 -243 -131 -252 -144 -4 -6 -8 -8 -8
-4 0 6 -180 -98 -190 -111 -3 -3 -11 -7 -18 -9 -13 -2 -173 -100 -182 -111 -3
-3 -11 -7 -18 -9 -7 -1 -36 -17 -65 -36 -57 -36 -132 -83 -217 -136 -30 -19
-56 -38 -58 -42 -2 -5 -8 -8 -13 -8 -12 0 -193 -121 -197 -132 -2 -4 -9 -8
-16 -8 -6 0 -26 -13 -44 -30 -18 -16 -34 -28 -36 -27 -3 1 -15 -7 -28 -18 -13
-11 -37 -29 -53 -39 -17 -11 -35 -24 -41 -30 -6 -6 -26 -22 -44 -36 -36 -27
-88 -68 -106 -85 -6 -5 -33 -28 -58 -50 -151 -128 -287 -260 -278 -271 4 -4 2
-4 -4 -1 -13 7 -37 -16 -29 -26 3 -4 2 -5 -1 -3 -9 7 -44 -27 -38 -36 3 -5 2
-7 -3 -6 -5 2 -21 -9 -35 -24 -125 -135 -183 -202 -180 -210 1 -5 -2 -7 -7 -4
-5 3 -16 -4 -24 -17 -14 -21 -26 -36 -83 -99 -13 -15 -24 -30 -24 -32 0 -3
-14 -20 -30 -38 -17 -18 -30 -40 -29 -48 1 -8 -1 -22 -4 -30 -4 -8 -20 -71
-37 -140 -17 -69 -35 -138 -40 -155 -5 -16 -26 -88 -45 -160 -77 -281 -198
-655 -310 -955 -9 -25 -18 -49 -19 -55 -1 -5 -4 -15 -8 -20 -3 -6 -25 -58 -48
-115 -22 -58 -47 -118 -55 -135 -7 -16 -29 -65 -49 -108 -20 -43 -36 -80 -36
-83 0 -6 -265 -535 -308 -614 -78 -143 -96 -176 -110 -197 -8 -13 -11 -23 -8
-23 4 0 -2 -10 -14 -22 -19 -20 -24 -33 -21 -50 0 -5 -3 -8 -7 -8 -5 0 -19
-19 -32 -42 -13 -24 -36 -62 -52 -85 -16 -24 -25 -43 -21 -43 4 0 0 -5 -9 -11
-10 -5 -18 -16 -18 -23 0 -8 -7 -19 -15 -26 -8 -7 -13 -16 -10 -20 3 -4 -2
-10 -10 -14 -8 -3 -15 -12 -15 -21 0 -8 -4 -15 -10 -15 -5 0 -10 -5 -10 -10 0
-6 -9 -20 -20 -32 -11 -12 -20 -28 -20 -35 0 -7 -4 -13 -9 -13 -11 0 -57 -72
-53 -83 1 -5 -1 -6 -6 -3 -4 2 -19 -12 -32 -32 -14 -20 -32 -44 -40 -52 -49
-51 -105 -125 -102 -134 2 -6 1 -8 -3 -4 -9 8 -50 -29 -50 -45 0 -7 -7 -12
-15 -12 -8 -1 -13 -7 -12 -15 2 -8 0 -12 -4 -7 -11 10 -45 -23 -37 -37 3 -6 3
-8 -1 -4 -5 4 -19 -4 -33 -18 -24 -24 -25 -29 -18 -107 3 -45 10 -100 15 -122
5 -22 12 -56 15 -75 21 -121 74 -285 171 -530 17 -44 174 -360 194 -390 5 -8
39 -66 75 -127 37 -62 73 -120 81 -128 9 -8 12 -15 7 -15 -4 -1 1 -8 13 -18
11 -9 20 -21 21 -25 1 -17 56 -97 66 -97 6 0 8 -3 4 -6 -3 -4 9 -27 28 -52 19
-25 35 -49 35 -54 0 -5 5 -6 10 -3 5 3 10 1 10 -6 0 -14 121 -179 132 -179 4
0 8 -5 8 -11 0 -6 6 -16 13 -23 6 -7 23 -28 37 -46 14 -18 33 -42 44 -54 10
-11 25 -31 33 -43 8 -13 19 -20 24 -17 5 3 8 1 7 -4 -4 -11 40 -65 172 -211
120 -133 152 -166 162 -163 5 1 7 -1 4 -6 -7 -11 209 -224 219 -215 4 5 6 3 2
-2 -3 -6 15 -28 40 -50 25 -22 62 -56 82 -75 21 -19 57 -51 81 -70 24 -19 51
-42 59 -51 44 -42 296 -229 310 -229 4 0 16 -9 26 -20 10 -11 24 -20 32 -20 7
0 13 -4 13 -9 0 -5 8 -11 18 -15 9 -3 40 -20 67 -37 72 -46 303 -160 325 -162
11 -1 20 -5 20 -9 0 -4 8 -8 18 -8 10 0 22 -4 27 -9 17 -15 264 -91 308 -94 9
-1 17 -4 17 -7 0 -4 6 -7 13 -8 60 -4 221 -73 291 -125 138 -100 277 -205 299
-225 15 -14 27 -23 27 -20 0 4 15 -8 34 -25 19 -18 44 -40 57 -50 63 -48 96
-75 138 -114 25 -23 49 -43 53 -43 4 0 19 -12 33 -27 14 -15 25 -23 25 -18 0
5 7 -1 16 -13 8 -12 20 -19 26 -16 6 4 8 2 5 -3 -4 -6 3 -17 16 -26 12 -8 34
-27 50 -42 15 -15 27 -25 27 -22 0 4 17 -10 38 -31 21 -20 48 -46 61 -57 l22
-19 -7 29 c-4 17 -10 35 -14 40 -3 6 -12 29 -20 53 -7 23 -17 42 -22 42 -5 0
-7 4 -4 9 4 5 1 22 -6 38 -6 15 -12 30 -13 33 -35 102 -207 467 -280 595 -19
33 -38 67 -42 75 -11 22 -138 212 -159 237 -11 12 -29 35 -41 51 -39 50 -71
81 -77 75 -3 -4 -6 -1 -6 5 0 7 -9 21 -20 32 -20 20 -176 120 -193 123 -5 1
-21 12 -35 24 -13 13 -28 20 -33 17 -5 -3 -9 -1 -9 4 0 5 -26 25 -57 45 -32
20 -66 42 -76 49 -73 50 -397 290 -413 305 -7 7 -15 13 -18 13 -3 0 -16 10
-28 22 -13 13 -39 35 -58 50 -101 78 -243 203 -401 353 -35 33 -67 59 -71 57
-4 -1 -7 4 -6 10 2 7 -3 12 -9 10 -7 -1 -13 2 -13 8 0 15 -33 50 -47 50 -7 0
-12 6 -11 13 2 6 -3 11 -10 9 -8 -1 -11 2 -8 6 7 11 -28 44 -37 37 -4 -3 -5
-2 -2 1 4 6 -64 84 -222 257 -23 26 -43 50 -43 53 0 4 -15 23 -32 44 -37 41
-50 57 -92 115 -17 22 -32 42 -35 45 -4 3 -19 24 -35 48 -16 23 -33 42 -37 42
-5 0 -8 3 -7 8 4 10 -63 112 -74 112 -4 0 -7 4 -6 8 2 5 -11 31 -29 58 -69
108 -237 421 -248 464 -1 3 -6 16 -12 30 -6 14 -25 63 -43 110 -17 47 -35 94
-40 105 -33 73 -59 215 -40 215 3 0 11 15 19 33 7 17 20 45 27 61 8 16 11 32
8 37 -3 5 -1 9 3 9 9 0 37 65 38 85 0 6 3 12 7 15 4 3 32 66 63 140 31 74 62
149 70 165 7 17 25 59 40 95 15 36 35 83 45 105 10 22 44 101 75 175 32 74 66
153 76 175 61 136 76 174 71 179 -3 3 0 6 6 6 7 0 12 5 12 11 0 14 45 118 148
341 22 48 37 89 34 92 -3 3 0 6 6 6 7 0 12 4 12 10 0 5 16 45 36 87 20 43 50
107 66 143 16 36 60 124 96 195 112 221 212 428 212 440 0 3 9 24 20 48 10 23
53 122 94 220 110 257 176 391 307 617 8 14 22 36 31 49 10 13 15 28 11 35 -3
6 -3 8 2 4 4 -4 34 31 66 78 33 48 73 104 90 125 17 21 27 39 23 39 -4 0 2 8
12 18 11 9 39 42 64 72 74 90 134 153 242 253 15 14 24 29 20 33 -4 5 -3 6 2
2 5 -4 32 12 60 35 28 24 63 52 78 61 16 10 25 23 21 30 -3 6 -3 8 1 4 6 -5
133 75 286 179 14 10 31 18 39 20 8 1 17 5 20 10 17 23 595 303 626 303 3 0
24 9 48 19 23 11 84 37 136 59 l94 40 56 -25 c31 -14 80 -36 109 -49 29 -13
59 -24 67 -24 7 0 17 -5 20 -11 4 -6 14 -8 22 -5 8 3 12 2 9 -2 -3 -5 12 -14
32 -21 20 -7 65 -26 100 -42 35 -16 65 -29 68 -29 10 0 248 -119 343 -172 58
-32 106 -58 108 -58 3 0 127 -79 173 -110 47 -32 158 -112 176 -127 11 -10 40
-34 64 -53 24 -19 68 -57 98 -85 30 -27 59 -49 64 -47 5 1 7 -1 5 -6 -3 -4 16
-29 43 -55 26 -26 45 -47 42 -47 -3 0 3 -9 13 -20 10 -11 22 -17 27 -14 4 3 7
1 6 -4 -2 -5 20 -37 47 -72 28 -35 68 -90 91 -122 23 -32 44 -55 48 -53 3 3 4
2 1 -1 -2 -4 15 -34 38 -68 24 -33 58 -86 76 -116 19 -30 39 -58 45 -62 6 -4
7 -8 2 -8 -5 0 -4 -6 2 -12 27 -34 200 -373 216 -425 4 -13 12 -23 18 -23 6 0
9 -3 5 -6 -8 -9 147 -377 235 -557 32 -65 58 -122 58 -127 0 -4 3 -10 8 -12 4
-1 39 -69 78 -150 40 -81 75 -144 80 -140 4 4 4 2 1 -4 -4 -6 2 -29 12 -50 45
-93 225 -490 258 -569 26 -61 40 -94 89 -200 15 -33 28 -64 30 -70 1 -5 67
-161 146 -345 150 -348 208 -486 278 -655 22 -55 45 -108 50 -117 6 -10 10
-25 10 -33 0 -16 -34 -132 -50 -170 -4 -11 -30 -76 -56 -145 -53 -136 -160
-353 -244 -495 -30 -49 -54 -92 -54 -95 -1 -2 -10 -14 -21 -26 -12 -12 -27
-35 -35 -51 -8 -15 -21 -35 -28 -43 -7 -8 -13 -19 -15 -25 -1 -5 -12 -21 -24
-35 -12 -14 -57 -72 -100 -130 -43 -58 -87 -115 -98 -126 -11 -12 -34 -39 -52
-60 -72 -90 -205 -234 -318 -348 -44 -44 -79 -84 -77 -90 2 -6 0 -8 -4 -3 -9
9 -150 -124 -145 -138 1 -5 -1 -7 -5 -3 -9 10 -35 -12 -28 -23 3 -5 1 -8 -4
-7 -9 3 -142 -106 -214 -174 -15 -15 -28 -24 -28 -20 0 4 -4 2 -8 -3 -4 -6
-35 -33 -69 -59 -35 -27 -63 -53 -63 -57 0 -5 -5 -9 -11 -9 -10 0 -90 -59
-109 -80 -3 -3 -24 -18 -47 -33 -24 -15 -43 -32 -43 -39 0 -6 -3 -9 -6 -6 -4
5 -255 -164 -301 -202 -7 -5 -17 -10 -23 -10 -5 0 -10 -3 -10 -7 0 -5 -18 -17
-40 -27 -22 -11 -40 -23 -40 -28 0 -4 -4 -8 -9 -8 -6 0 -36 -15 -68 -34 -81
-48 -171 -136 -250 -248 -21 -29 -41 -54 -45 -56 -5 -2 -8 -10 -8 -17 0 -7 -4
-15 -8 -17 -9 -4 -92 -134 -92 -144 0 -4 -6 -15 -14 -23 -27 -29 -218 -417
-220 -446 -1 -5 -4 -12 -8 -15 -12 -9 -158 -386 -158 -408 0 -2 13 7 29 20 15
13 26 26 24 31 -2 4 1 7 7 7 7 0 53 35 104 78 50 43 102 87 115 98 13 10 39
34 58 52 19 17 39 32 44 32 5 0 9 3 9 8 0 4 16 18 35 31 19 13 32 27 29 32 -3
5 -1 8 4 7 5 -2 26 11 48 28 21 18 75 60 119 95 44 34 82 66 83 71 2 4 8 8 14
8 6 0 25 12 43 27 56 48 75 63 81 63 4 0 72 48 109 78 6 4 27 16 48 25 20 10
37 22 37 27 0 6 3 9 8 8 13 -4 142 37 142 45 0 4 4 6 10 2 5 -3 31 1 57 9 130
40 229 70 238 72 36 7 257 104 266 117 3 5 8 8 10 8 14 -2 49 13 49 21 0 5 5
6 10 3 6 -3 10 -1 10 4 0 6 5 11 12 11 12 0 229 128 238 140 3 4 20 15 38 24
17 9 32 21 32 26 0 6 7 10 15 10 7 0 19 8 24 17 6 10 11 14 11 10 0 -4 6 -3
13 3 6 5 51 41 98 78 47 37 93 74 102 82 8 8 30 26 48 40 18 14 58 49 88 77
31 29 60 53 64 53 5 0 5 5 2 10 -3 5 -1 10 6 10 16 0 59 42 59 59 0 8 3 11 7
8 8 -9 184 164 177 175 -3 5 -1 7 4 6 9 -3 31 18 165 165 97 106 115 126 237
273 50 59 111 137 142 179 4 6 21 26 37 46 17 20 28 39 24 43 -3 3 -2 6 4 6 6
0 23 19 39 43 16 23 32 44 35 47 30 25 312 475 312 497 0 7 4 13 9 13 13 0
201 388 193 400 -3 5 -2 10 3 10 7 0 41 70 48 100 0 3 6 17 12 31 32 77 106
339 117 414 3 23 8 52 10 65 3 14 8 57 11 97 l6 72 -88 89 c-98 99 -193 202
-186 202 2 0 -14 21 -35 48 -74 90 -187 254 -281 409 -27 45 -53 79 -57 75 -5
-4 -6 -2 -2 3 3 6 -8 33 -24 60 -16 28 -36 65 -46 83 -9 17 -20 32 -23 32 -4
0 -7 6 -7 13 0 6 -24 55 -53 107 -67 121 -340 666 -340 678 0 5 -7 15 -15 22
-8 7 -12 16 -9 21 3 5 -2 21 -10 36 -9 16 -25 51 -37 78 -55 131 -112 272
-119 295 -5 14 -22 63 -40 110 -52 140 -141 398 -155 450 -2 8 -20 67 -40 130
-20 63 -38 122 -40 130 -2 8 -25 89 -50 179 -26 90 -48 172 -50 182 -2 11 -6
23 -9 27 -3 5 -7 19 -9 33 -3 13 -15 62 -27 109 -12 47 -24 96 -26 110 -5 27
-37 78 -76 122 -14 15 -33 38 -43 52 -10 14 -23 22 -27 20 -5 -3 -7 -1 -6 4 2
5 -10 25 -27 43 -16 19 -50 58 -73 87 -26 30 -49 49 -55 45 -7 -3 -9 -3 -5 2
8 9 -52 81 -64 77 -4 -1 -8 3 -8 9 0 14 -65 79 -79 79 -6 0 -10 4 -9 8 4 11
-204 212 -213 206 -4 -2 -10 5 -14 16 -3 11 -10 20 -14 20 -6 0 -21 13 -114
95 -15 14 -31 25 -36 25 -5 0 -11 3 -13 8 -5 12 -118 104 -118 96 0 -4 -8 2
-17 12 -22 24 -183 139 -313 223 -52 34 -103 67 -112 74 -10 6 -47 30 -84 52
-36 22 -95 59 -131 82 -36 24 -70 40 -76 36 -5 -3 -7 -2 -4 4 6 9 -49 44 -66
43 -5 -1 -17 8 -26 19 -10 12 -21 21 -25 21 -4 0 -46 24 -94 53 -111 67 -120
72 -162 95 -64 35 -215 124 -228 134 -7 6 -15 8 -19 5 -3 -4 -11 -1 -17 7 -6
7 -51 35 -101 61 -49 26 -136 72 -192 102 -57 30 -103 52 -103 48 0 -3 -7 1
-16 9 -8 9 -20 14 -25 11 -5 -4 -9 -1 -9 4 0 17 -8 14 -125 -47z"/>
<path d="M6282 10158 c-47 -8 -97 -35 -124 -67 -10 -12 -16 -21 -13 -21 3 0
-4 -9 -16 -21 -25 -25 -19 -35 13 -18 27 15 39 18 96 26 35 4 50 0 82 -21 22
-14 44 -26 50 -26 6 0 8 -4 5 -10 -3 -5 -1 -10 5 -10 6 0 27 -15 47 -32 19
-18 40 -32 45 -30 5 1 7 -2 4 -7 -6 -9 18 -34 25 -26 3 2 10 -4 17 -15 12 -20
10 -21 -72 -36 -90 -16 -176 -92 -176 -157 0 -35 25 -54 100 -75 8 -2 112 -6
230 -7 257 -4 394 14 462 61 42 29 63 58 53 74 -3 6 -2 10 3 10 10 0 10 55 0
66 -5 4 -8 3 -8 -2 0 -6 -17 -20 -37 -31 -54 -30 -100 -23 -172 27 -33 22 -63
40 -67 40 -4 0 -12 6 -18 14 -17 20 -225 176 -235 176 -5 0 -11 3 -13 8 -5 11
-60 47 -115 76 -67 34 -118 44 -171 34z"/>
<path d="M8642 10159 c-45 -8 -167 -68 -198 -98 -11 -10 -33 -26 -49 -37 -47
-30 -199 -146 -212 -161 -6 -8 -14 -14 -18 -13 -4 1 -17 -7 -29 -17 -12 -11
-48 -32 -80 -48 -52 -25 -60 -27 -97 -16 -22 7 -48 21 -57 32 -9 10 -19 19
-23 19 -9 0 -4 -70 6 -95 20 -48 88 -90 162 -99 21 -3 61 -10 88 -15 28 -5
151 -8 275 -7 233 3 276 10 309 50 15 18 7 86 -10 86 -6 0 -8 4 -5 8 6 11 -40
54 -74 69 -25 12 -69 25 -128 40 l-32 8 60 55 c33 31 60 54 60 52 0 -2 23 15
52 37 57 46 85 56 131 47 18 -3 41 -7 52 -8 11 -2 26 -9 33 -15 7 -7 18 -13
23 -13 28 0 -65 104 -108 121 -51 20 -87 25 -131 18z"/>
<path d="M7478 9542 c-21 -2 -38 -8 -38 -13 0 -6 -4 -8 -8 -5 -22 13 -111 -92
-97 -114 7 -11 -55 -32 -81 -27 -10 2 -29 8 -41 15 -79 43 -166 -25 -211 -165
-11 -33 -5 -70 18 -114 17 -31 29 -42 64 -57 l28 -13 -6 35 c-6 30 -3 39 23
64 70 66 210 112 216 71 4 -26 35 -68 67 -90 25 -18 40 -21 100 -17 68 4 72 5
105 43 18 21 36 50 40 63 5 21 10 23 45 18 67 -9 176 -77 191 -119 4 -10 2
-27 -3 -38 -9 -16 -7 -19 12 -19 49 1 101 75 100 141 -1 52 -46 143 -90 179
-36 30 -103 42 -116 21 -9 -13 -75 -21 -101 -11 -13 5 -27 19 -30 32 -24 74
-106 127 -187 120z"/>
<path d="M7166 8739 c-37 -4 -89 -13 -115 -19 -25 -6 -49 -11 -54 -10 -12 1
-129 -60 -172 -90 -85 -59 -275 -267 -258 -284 3 -3 1 -6 -5 -6 -7 0 -12 -7
-12 -15 0 -8 -4 -15 -9 -15 -9 0 -27 -40 -22 -49 2 -2 -3 -7 -11 -12 -7 -5
-13 -12 -13 -16 -1 -4 -9 -23 -18 -41 -10 -18 -15 -37 -12 -42 3 -6 2 -10 -3
-10 -5 0 -12 -8 -15 -17 -3 -10 -14 -42 -25 -71 -51 -133 -113 -413 -127 -575
-4 -37 -8 -78 -11 -90 -2 -12 -6 -97 -9 -188 -3 -91 -8 -177 -10 -190 -3 -13
-10 -51 -16 -83 -11 -64 -52 -181 -70 -203 -6 -7 -8 -13 -5 -13 4 0 1 -7 -7
-15 -9 -8 -17 -20 -20 -27 -8 -24 -15 -3 -21 62 -11 139 -30 187 -139 347 -41
61 -81 130 -88 152 -7 23 -15 41 -18 41 -4 0 -7 8 -8 18 0 9 -8 51 -16 92 -8
41 -18 100 -22 130 -7 55 -8 329 -1 385 2 17 7 59 12 95 4 36 7 75 7 87 -1 26
-31 68 -59 81 -17 8 -24 5 -40 -16 -10 -14 -18 -29 -17 -34 2 -4 -1 -8 -5 -8
-5 0 -27 -37 -50 -83 -82 -165 -136 -356 -158 -552 -3 -33 -8 -69 -11 -80 -2
-11 -6 -77 -9 -146 -4 -121 -3 -127 21 -163 14 -20 25 -39 25 -42 0 -2 30 -49
66 -104 40 -59 71 -97 78 -93 6 3 8 3 4 -2 -14 -15 112 -161 127 -147 3 4 5 2
3 -4 -1 -6 22 -38 52 -70 110 -118 170 -235 170 -333 0 -33 4 -62 10 -66 5 -3
7 -12 4 -19 -3 -7 2 -35 11 -62 24 -71 106 -235 122 -241 7 -3 11 -8 8 -12 -4
-7 24 -43 113 -148 19 -23 39 -40 44 -37 5 3 7 2 6 -3 -4 -12 44 -63 54 -57 4
3 8 -1 8 -8 1 -7 21 -29 47 -48 25 -19 53 -42 62 -51 32 -31 88 -69 94 -64 4
3 5 2 2 -2 -4 -5 89 -73 101 -73 2 0 27 -16 54 -35 27 -19 52 -35 55 -35 3 0
23 -11 45 -25 22 -14 40 -22 40 -18 0 5 4 3 8 -3 10 -16 92 -56 92 -45 0 17
104 69 180 89 100 27 141 33 252 36 205 6 392 -35 490 -107 l28 -21 50 24 c27
13 50 27 50 31 0 4 10 9 23 12 24 7 170 97 175 109 2 4 10 8 17 8 8 0 19 8 24
18 6 9 11 13 11 9 0 -11 100 63 175 129 22 20 50 42 63 51 12 8 22 22 22 30 0
8 4 12 8 9 5 -3 35 24 68 60 32 36 69 77 82 90 12 14 22 29 22 34 0 5 6 15 13
22 74 77 167 309 167 418 0 25 5 63 11 85 6 22 10 42 9 44 -1 2 2 7 7 10 17
12 62 98 55 106 -4 5 -2 5 5 1 14 -7 36 27 25 39 -4 3 0 5 8 3 8 -1 14 3 12
10 -1 6 5 12 13 12 8 0 15 4 15 9 0 5 13 22 29 37 17 15 27 32 24 37 -3 6 -2
7 4 4 6 -4 32 19 59 49 27 31 54 61 60 68 30 32 183 264 177 270 -3 3 -2 6 4
6 38 0 41 145 8 412 -16 132 -74 367 -97 393 -4 5 -8 15 -8 22 0 13 -55 129
-101 212 -13 24 -30 46 -37 49 -36 13 -100 -64 -88 -106 24 -81 37 -427 21
-544 -26 -189 -55 -281 -118 -383 -6 -11 -14 -22 -17 -25 -18 -16 -48 -68 -43
-74 3 -3 1 -6 -5 -6 -13 0 -65 -90 -81 -141 -17 -53 -21 -77 -29 -154 l-7 -70
-25 35 c-14 19 -25 37 -26 40 0 3 -7 21 -16 41 -46 105 -66 224 -73 425 -4
137 -10 230 -19 294 -13 99 -20 137 -38 225 -40 201 -89 355 -160 505 -38 79
-100 180 -130 211 -8 8 -24 29 -37 47 -12 18 -27 30 -32 27 -5 -4 -9 0 -9 7 0
15 -17 31 -100 97 -64 50 -146 94 -210 111 -172 47 -368 42 -414 -9 -21 -23
-16 -97 9 -159 9 -20 15 -37 13 -37 -4 -1 22 -32 59 -71 44 -45 112 -64 253
-70 229 -9 251 -15 304 -74 15 -18 41 -56 56 -86 16 -29 32 -49 36 -46 4 4 4
2 0 -5 -3 -6 4 -36 17 -65 30 -66 49 -126 84 -255 7 -28 10 -39 16 -53 3 -8 8
-28 12 -45 3 -16 10 -46 14 -65 8 -30 17 -72 35 -157 2 -11 8 -43 12 -70 3
-26 8 -56 10 -65 7 -41 15 -216 18 -399 2 -108 6 -200 9 -205 7 -11 20 -92 19
-117 0 -9 -8 -24 -16 -33 -9 -8 -16 -22 -16 -30 0 -8 -4 -14 -8 -14 -4 0 -25
-25 -47 -56 -22 -32 -68 -86 -102 -121 -35 -36 -63 -69 -63 -74 0 -5 -3 -8 -8
-7 -12 5 -62 -39 -54 -47 4 -5 2 -5 -4 -2 -6 4 -21 -2 -32 -11 -12 -10 -50
-33 -86 -52 l-66 -33 -67 33 c-73 36 -162 118 -183 170 -13 32 -82 76 -100 65
-6 -3 -10 -2 -10 4 0 10 -101 24 -185 25 -87 1 -178 -13 -232 -35 -42 -17 -58
-30 -79 -68 -38 -65 -105 -125 -179 -162 -62 -30 -65 -31 -96 -15 -18 9 -38
16 -45 16 -7 0 -14 3 -16 8 -1 4 -30 25 -63 47 -78 53 -198 172 -266 265 -86
119 -88 124 -72 194 8 35 16 143 18 251 6 273 19 437 40 529 3 12 7 35 9 51 2
17 6 37 9 45 4 8 13 47 22 85 15 68 61 235 72 265 3 8 8 24 10 34 2 11 8 25
14 33 6 7 9 13 6 13 -10 0 62 161 94 211 35 55 87 103 114 106 11 1 43 5 70 8
28 2 102 7 166 10 180 7 241 37 298 146 28 52 34 76 35 127 1 69 -3 75 -65 92
-50 14 -122 17 -203 9z"/>
<path d="M7379 8236 c-2 -2 -40 -6 -84 -9 -79 -6 -116 -12 -165 -23 -14 -3
-35 -8 -48 -10 -53 -10 -131 -46 -160 -75 -55 -53 -55 -135 -1 -236 17 -32 38
-65 48 -73 9 -8 17 -19 17 -24 -1 -5 9 -15 21 -23 19 -13 23 -13 33 6 6 13 8
39 4 68 -10 65 -8 81 11 109 15 23 49 43 85 50 20 4 81 16 100 21 8 1 58 6
110 10 281 20 542 -14 591 -76 18 -23 20 -36 16 -100 -7 -99 6 -114 57 -64 19
20 33 39 31 43 -3 5 2 11 11 14 8 3 12 10 9 16 -3 5 -2 10 4 10 14 0 51 105
51 146 0 46 -25 98 -56 119 -13 8 -24 12 -24 8 0 -4 -6 1 -12 10 -13 16 -132
50 -223 63 -27 3 -59 8 -70 11 -24 5 -351 13 -356 9z"/>
<path d="M6986 7129 c-15 -12 -25 -23 -22 -26 2 -3 -5 -14 -16 -25 -17 -17
-19 -29 -16 -70 5 -43 12 -56 54 -99 92 -94 84 -92 503 -94 418 -1 430 1 509
77 53 52 72 87 71 130 -1 38 -31 94 -49 90 -6 -1 -9 2 -5 7 8 14 -31 33 -62
29 -21 -2 -33 -15 -55 -58 -44 -85 -92 -109 -258 -127 -153 -16 -378 1 -447
34 -46 22 -80 58 -99 109 -15 39 -20 44 -49 44 -18 0 -44 -10 -59 -21z"/>
</g>
</svg>
