<?xml version="1.0" encoding="utf-8"?><svg xmlns="http://www.w3.org/2000/svg" xmlns:xlink="http://www.w3.org/1999/xlink" viewBox="0 0 1106.01 1106.01"><defs><style>.cls-1{fill:none;}.cls-2{fill:#8105f5;}.cls-3{fill:url(#linear-gradient);}.cls-4{fill:url(#linear-gradient-2);}.cls-5{fill:url(#linear-gradient-3);}.cls-6{fill:#070feb;}.cls-7{fill:url(#linear-gradient-4);}.cls-8{fill:url(#linear-gradient-5);}.cls-9{fill:url(#linear-gradient-6);}.cls-10{fill:url(#linear-gradient-7);}</style><linearGradient id="linear-gradient" x1="196.81" y1="196.8" x2="909.22" y2="909.21" gradientUnits="userSpaceOnUse"><stop offset="0.26" stop-color="#8105f5"/><stop offset="0.62" stop-color="#490af0"/><stop offset="1" stop-color="#070feb"/></linearGradient><linearGradient id="linear-gradient-2" x1="482.56" y1="372.17" x2="677.21" y2="566.83" xlink:href="#linear-gradient"/><linearGradient id="linear-gradient-3" x1="397.85" y1="455.67" x2="650.75" y2="708.58" xlink:href="#linear-gradient"/><linearGradient id="linear-gradient-4" x1="162.16" y1="162.16" x2="943.86" y2="943.86" xlink:href="#linear-gradient"/><linearGradient id="linear-gradient-5" x1="166.83" y1="360.4" x2="487.13" y2="360.4" xlink:href="#linear-gradient"/><linearGradient id="linear-gradient-6" x1="747.59" y1="411.44" x2="877.71" y2="411.44" xlink:href="#linear-gradient"/><linearGradient id="linear-gradient-7" x1="219.82" y1="622.24" x2="651.62" y2="622.24" xlink:href="#linear-gradient"/></defs><g id="Layer_2" data-name="Layer 2"><g id="Token_Colour" data-name="Token Colour"><path class="cls-1" d="M553,18.5C258.28,18.5,18.5,258.28,18.5,553S258.28,1087.52,553,1087.52,1087.52,847.74,1087.52,553,847.74,18.5,553,18.5Zm-385.69,209a15.76,15.76,0,0,1,2.33-5.41,18.07,18.07,0,0,1,4-4.22,23.92,23.92,0,0,1,4.82-2.79,42.56,42.56,0,0,1,10.24-2.9,102,102,0,0,1,20.54-.87c6.79.3,13.53,1,20.22,1.92s13.33,2.09,19.95,3.33,13.2,2.66,19.75,4.2c26.2,6.11,52,13.59,77.6,21.77-25.94-6.93-51.94-13.66-78.21-18.95-6.56-1.36-13.14-2.56-19.74-3.7S235.62,217.77,229,217s-13.27-1.32-19.89-1.5a97.51,97.51,0,0,0-19.61,1.15,38.68,38.68,0,0,0-9,2.7,19.17,19.17,0,0,0-3.83,2.3,12.27,12.27,0,0,0-4.72,11.22,30.84,30.84,0,0,0,2.15,9,65.68,65.68,0,0,0,4.2,8.71c1.61,2.83,3.38,5.6,5.25,8.31,3.75,5.42,7.88,10.62,12.18,15.68,8.63,10.11,17.89,19.74,27.46,29.06s19.45,18.35,29.49,27.19c20.05,17.74,40.78,34.74,61.8,51.37S356.83,415,378.36,431c43.15,31.86,64.08,48.85,108.77,78.64-23-13.81-22.64-14.47-45.07-29.25q-16.8-11.12-33.41-22.53t-33-23.14c-43.69-31.28-86.44-64-126.92-99.5-10.07-8.93-20-18.06-29.61-27.5s-19-19.18-27.7-29.58c-4.34-5.21-8.51-10.59-12.35-16.25-1.91-2.83-3.73-5.74-5.41-8.76a70.49,70.49,0,0,1-4.43-9.46,35.59,35.59,0,0,1-2.37-10.54A21.15,21.15,0,0,1,167.32,227.47Zm651.5,126.3A323.91,323.91,0,0,1,844,395.69a327.49,327.49,0,0,1,18.48,45.14,315.73,315.73,0,0,1,15.23,95.61,343.78,343.78,0,0,0-20.15-93.91,326,326,0,0,0-19.73-43.63c-.93-1.76-1.94-3.48-2.92-5.22s-1.94-3.48-3-5.18l-3-5.14-3.18-5.06c-4.31-6.7-8.79-13.29-13.57-19.66s-9.75-12.58-15-18.59-10.61-11.84-16.2-17.48-11.45-11-17.43-16.27q-7.75-6.72-15.93-13a49.21,49.21,0,0,1,7.45-6.9A325,325,0,0,1,818.82,353.77ZM784.5,300.64l4.88-2.91A33,33,0,0,0,802,284.16l2.54-5.08,3.4,5.7A29.68,29.68,0,0,0,820.1,296.1l5.94,3-5.15,3.08a31.8,31.8,0,0,0-12.15,13.11l-2.68,5.37L803.33,316a34.18,34.18,0,0,0-14.05-13Zm95.89,264.49a29.18,29.18,0,0,0,12,11.23l5.84,3-5.1,3A31.46,31.46,0,0,0,881,595.18l-2.67,5.28-2.67-4.53A33.67,33.67,0,0,0,861.92,583l-4.7-2.37,4.83-2.84a32.53,32.53,0,0,0,12.48-13.31l2.53-5ZM755.67,277.46a56.18,56.18,0,0,0-21.45,23.14l-4.73,9.49L724.66,302a60.21,60.21,0,0,0-24.8-23l-8.44-4.2,8.6-5.14a58.08,58.08,0,0,0,22.21-24l4.48-9,6,10.07a52.32,52.32,0,0,0,21.56,20l10.5,5.23ZM249.42,641.88a319.85,319.85,0,0,0,58.64,110.24c26.52,32.56,59.72,59.59,96.67,79.84,74.07,40.6,164.57,50.53,246.89,26.76a323.89,323.89,0,0,1-127,16.32,330.76,330.76,0,0,1-124.24-34.66,327.27,327.27,0,0,1-101.77-80.33,334.18,334.18,0,0,1-63.28-113.74c-13.16-41.68-18.29-86.1-14-129.69a318.8,318.8,0,0,1,12.81-64.2,325.77,325.77,0,0,1,25.3-60.28q6.51-12.06,14.05-23.5c3,2.49,6,5,9.07,7.42q-6.53,10.68-12.17,21.82a329.24,329.24,0,0,0-22.82,58.51A334.32,334.32,0,0,0,236.31,518,328.66,328.66,0,0,0,249.42,641.88Zm397.67,35H458.92q-33.09,0-56.4-21.15-23.14-21.15-23.14-51.16v-103a64.91,64.91,0,0,1,14.78-42.13l9.14,6.31c11.52,7.9,22.8,15.51,33.56,22.63,6.34,4.21,10.84,7.23,14.59,9.76A26,26,0,0,0,447,513.25v79.52c0,8,3.16,14.83,9.42,20.6a34,34,0,0,0,22.41,8.34H627.21q13.56-.57,22.6-8.5c6.15-5.8,9.2-12.6,9.2-20.44V589h67.62v15.54q.17,30-23.14,51.16Q680.34,676.81,647.09,676.84ZM675.25,553l4.4-2.41A29.24,29.24,0,0,0,691.24,539l2.41-4.4,2.82,5.16a26.25,26.25,0,0,0,10.42,10.42L712,553l-4.66,2.55a28.1,28.1,0,0,0-11.18,11.18l-2.55,4.67-2.27-4.15a30.2,30.2,0,0,0-12-12ZM659,517.4v-4.15a26.22,26.22,0,0,0-9.2-20.61q-9.06-8.86-22.6-8.33H478.8a32.91,32.91,0,0,0-10.17,1.37c-20.06-14-35.84-25.78-54.51-39.78-1-.76-2-1.51-3-2.27q20.64-14.44,47.82-14.46H647.09q33.25,0,56.4,21.18,23.31,21.12,23.14,51.14V517.4Zm39.52-255.19a316.16,316.16,0,0,0-36.82-16.29c-7.42-2.81-15-5.24-22.6-7.45s-15.33-4.1-23.07-5.77a329.58,329.58,0,0,0-47.15-6.47c-7.9-.54-15.86-.71-23.79-.68s-15.88.41-23.81,1c-4.16.35-8.28.75-12.44,1.24-.65.11-1.29.22-2,.32a336.25,336.25,0,0,0-136.94,55.16c-2.56,1.73-5,3.59-7.58,5.37s-5,3.72-7.42,5.59c-4.88,3.83-9.68,7.74-14.35,11.81q-8.94,7.77-17.31,16.21a320.58,320.58,0,0,0-27.11,33.18c-2.89-2.38-5.72-4.7-8.47-7,5.88-8,12.16-15.78,18.8-23.22a324,324,0,0,1,57.42-50.69,324.72,324.72,0,0,1,66.68-35.41c.35-.14.65-.27,1-.38,0,0,0,0,0,0,5.61-2.26,11.33-4.28,17.08-6.23,7.71-2.61,15.59-4.8,23.49-6.85a326.81,326.81,0,0,1,145.95-3.15c8,1.64,16,3.56,23.85,5.85s15.7,4.77,23.36,7.63a331,331,0,0,1,41.81,18.94A51.43,51.43,0,0,1,698.53,262.21ZM263.42,327.75c-1.54-1.33-3.05-2.67-4.56-4-10.79-9.49-20.31-18.28-29.13-26.89-10.36-10.06-19.15-19.36-26.86-28.4a187,187,0,0,1-11.6-14.94c-1.81-2.59-3.43-5.16-4.83-7.61a60.23,60.23,0,0,1-3.56-7.36,22.19,22.19,0,0,1-1.57-6.24,5,5,0,0,1,.3-2.31,3.31,3.31,0,0,1,.73-.81,10.21,10.21,0,0,1,2.08-1.24,27.4,27.4,0,0,1,6.74-2A76.68,76.68,0,0,1,205,224.9c1.26,0,2.56,0,3.85,0,5.53.16,11.6.62,19.07,1.46,6.94.78,13.68,1.83,19.29,2.75,7.44,1.27,13.62,2.43,19.47,3.64,24.17,4.86,54.68,12.49,77.53,18.5A369.5,369.5,0,0,0,263.42,327.75ZM553,1057C275.1,1057,49,830.91,49,553a501.39,501.39,0,0,1,109.3-313,54.06,54.06,0,0,0,2.07,7.07,78.87,78.87,0,0,0,5,10.73c1.73,3.1,3.64,6.2,5.85,9.47,3.62,5.34,7.85,10.9,12.92,17,7.8,9.33,16.54,18.67,28.33,30.29,9.11,8.9,18.9,18,30,27.84,2.1,1.83,4.18,3.67,6.31,5.5A364.64,364.64,0,0,0,186,553c0,202.38,164.65,367,367,367S920,755.38,920,553a365.53,365.53,0,0,0-92.79-243.68l18.45-11L824.3,287.64A20,20,0,0,1,816,280l-12.28-20.53-8.84,17.75a366.47,366.47,0,0,0-426.1-41.54c-29-8.9-74.47-18.72-97.46-24.08-6.9-1.65-13.73-3-20.15-4.29-5.61-1.06-13-2.38-20.41-3.4-7.66-1.08-14.57-1.73-21.12-2-2.27-.11-4.59-.16-6.88-.16a101.5,101.5,0,0,0-11.36.59C283,107.81,411.29,49,553,49c277.9,0,504,226.09,504,504S830.91,1057,553,1057Z"/><path class="cls-2" d="M266.68,232.8c-5.85-1.21-12-2.37-19.47-3.64-5.61-.92-12.35-2-19.29-2.75-7.47-.84-13.54-1.3-19.07-1.46-1.29,0-2.59,0-3.85,0A76.68,76.68,0,0,0,191.16,226a27.4,27.4,0,0,0-6.74,2,10.21,10.21,0,0,0-2.08,1.24,3.31,3.31,0,0,0-.73.81,5,5,0,0,0-.3,2.31,22.19,22.19,0,0,0,1.57,6.24,60.23,60.23,0,0,0,3.56,7.36c1.4,2.45,3,5,4.83,7.61a187,187,0,0,0,11.6,14.94c7.71,9,16.5,18.34,26.86,28.4,8.82,8.61,18.34,17.4,29.13,26.89,1.51,1.33,3,2.67,4.56,4a369.5,369.5,0,0,1,80.79-76.45C321.36,245.29,290.85,237.66,266.68,232.8Z"/><path class="cls-3" d="M553,49C411.29,49,283,107.81,191.4,202.29a101.5,101.5,0,0,1,11.36-.59c2.29,0,4.61.05,6.88.16,6.55.27,13.46.92,21.12,2,7.44,1,14.8,2.34,20.41,3.4,6.42,1.26,13.25,2.64,20.15,4.29,23,5.36,68.44,15.18,97.46,24.08a366.47,366.47,0,0,1,426.1,41.54l8.84-17.75L816,280a20,20,0,0,0,8.3,7.69l21.39,10.68-18.45,11A365.53,365.53,0,0,1,920,553c0,202.38-164.64,367-367,367S186,755.38,186,553a364.64,364.64,0,0,1,62.85-205.16c-2.13-1.83-4.21-3.67-6.31-5.5-11.12-9.82-20.91-18.94-30-27.84-11.79-11.62-20.53-21-28.33-30.29-5.07-6.09-9.3-11.65-12.92-17-2.21-3.27-4.12-6.37-5.85-9.47a78.87,78.87,0,0,1-5-10.73,54.06,54.06,0,0,1-2.07-7.07A501.39,501.39,0,0,0,49,553c0,277.91,226.09,504,504,504s504-226.09,504-504S830.91,49,553,49Z"/><path class="cls-4" d="M726.63,501.49q.17-30-23.14-51.14-23.15-21.17-56.4-21.18H458.92q-27.18,0-47.82,14.46c1,.76,2,1.51,3,2.27,18.67,14,34.45,25.81,54.51,39.78a32.91,32.91,0,0,1,10.17-1.37H627.21q13.56-.53,22.6,8.33a26.22,26.22,0,0,1,9.2,20.61v4.15h67.62Z"/><path class="cls-5" d="M726.63,604.53V589H659v3.78c0,7.84-3,14.64-9.2,20.44q-9.06,7.93-22.6,8.5H478.8a34,34,0,0,1-22.41-8.34c-6.26-5.77-9.42-12.65-9.42-20.6V513.25a26,26,0,0,1,4.48-15.19c-3.75-2.53-8.25-5.55-14.59-9.76-10.76-7.12-22-14.73-33.56-22.63l-9.14-6.31a64.91,64.91,0,0,0-14.78,42.13v103q0,30,23.14,51.16,23.31,21.12,56.4,21.15H647.09q33.25,0,56.4-21.15Q726.8,634.54,726.63,604.53Z"/><path class="cls-6" d="M691.38,567.26l2.27,4.15,2.55-4.67a28.1,28.1,0,0,1,11.18-11.18L712,553l-5.15-2.82a26.25,26.25,0,0,1-10.42-10.42l-2.82-5.16-2.41,4.4a29.24,29.24,0,0,1-11.59,11.59l-4.4,2.41,4.14,2.26A30.2,30.2,0,0,1,691.38,567.26Z"/><path class="cls-7" d="M553,0C248.08,0,0,248.08,0,553s248.08,553,553,553,553-248.08,553-553S857.93,0,553,0Zm0,1087.52C258.28,1087.52,18.5,847.74,18.5,553S258.28,18.5,553,18.5,1087.52,258.28,1087.52,553,847.74,1087.52,553,1087.52Z"/><path class="cls-6" d="M862.05,577.79l-4.83,2.84,4.7,2.37a33.67,33.67,0,0,1,13.78,12.93l2.67,4.53,2.67-5.28a31.46,31.46,0,0,1,12.06-12.86l5.1-3-5.84-3a29.18,29.18,0,0,1-12-11.23l-3.33-5.65-2.53,5A32.53,32.53,0,0,1,862.05,577.79Z"/><path class="cls-2" d="M732.72,246.81l-6-10.07-4.48,9a58.08,58.08,0,0,1-22.21,24l-8.6,5.14,8.44,4.2a60.21,60.21,0,0,1,24.8,23l4.83,8.09,4.73-9.49a56.18,56.18,0,0,1,21.45-23.14l9.11-5.44-10.5-5.23A52.32,52.32,0,0,1,732.72,246.81Z"/><path class="cls-2" d="M803.33,316l2.73,4.58,2.68-5.37a31.8,31.8,0,0,1,12.15-13.11l5.15-3.08-5.94-3a29.68,29.68,0,0,1-12.21-11.32l-3.4-5.7L802,284.16a33,33,0,0,1-12.57,13.57l-4.88,2.91,4.78,2.38A34.18,34.18,0,0,1,803.33,316Z"/><path class="cls-8" d="M169.23,243.7a70.49,70.49,0,0,0,4.43,9.46c1.68,3,3.5,5.93,5.41,8.76,3.84,5.66,8,11,12.35,16.25,8.69,10.4,18.08,20.13,27.7,29.58s19.54,18.57,29.61,27.5c40.48,35.52,83.23,68.22,126.92,99.5q16.41,11.7,33,23.14t33.41,22.53c22.43,14.78,22,15.44,45.07,29.25-44.69-29.79-65.62-46.78-108.77-78.64-21.53-16-42.94-32.15-63.93-48.83s-41.75-33.63-61.8-51.37c-10-8.84-19.92-17.88-29.49-27.19s-18.83-18.95-27.46-29.06c-4.3-5.06-8.43-10.26-12.18-15.68-1.87-2.71-3.64-5.48-5.25-8.31a65.68,65.68,0,0,1-4.2-8.71,30.84,30.84,0,0,1-2.15-9,12.27,12.27,0,0,1,4.72-11.22,19.17,19.17,0,0,1,3.83-2.3,38.68,38.68,0,0,1,9-2.7,97.51,97.51,0,0,1,19.61-1.15c6.62.18,13.26.76,19.89,1.5s13.23,1.75,19.83,2.83,13.18,2.34,19.74,3.7c26.27,5.29,52.27,12,78.21,18.95-25.58-8.18-51.4-15.66-77.6-21.77-6.55-1.54-13.14-2.89-19.75-4.2s-13.26-2.41-19.95-3.33-13.43-1.62-20.22-1.92a102,102,0,0,0-20.54.87,42.56,42.56,0,0,0-10.24,2.9,23.92,23.92,0,0,0-4.82,2.79,18.07,18.07,0,0,0-4,4.22,15.76,15.76,0,0,0-2.33,5.41,21.15,21.15,0,0,0-.46,5.69A35.59,35.59,0,0,0,169.23,243.7Z"/><path class="cls-9" d="M747.59,293.34q8.16,6.26,15.93,13,9,7.86,17.43,16.27t16.2,17.48c5.23,6,10.19,12.23,15,18.59s9.26,13,13.57,19.66l3.18,5.06,3,5.14c1,1.7,2,3.45,3,5.18s2,3.46,2.92,5.22a326,326,0,0,1,19.73,43.63,343.78,343.78,0,0,1,20.15,93.91,315.73,315.73,0,0,0-15.23-95.61A327.49,327.49,0,0,0,844,395.69a326.57,326.57,0,0,0-89-109.25A49.21,49.21,0,0,0,747.59,293.34Z"/><path class="cls-10" d="M247.56,456.39a329.24,329.24,0,0,1,22.82-58.51q5.63-11.11,12.17-21.82c-3.05-2.45-6.1-4.93-9.07-7.42q-7.56,11.46-14.05,23.5a325.77,325.77,0,0,0-25.3,60.28,318.8,318.8,0,0,0-12.81,64.2c-4.32,43.59.81,88,14,129.69a334.18,334.18,0,0,0,63.28,113.74,327.27,327.27,0,0,0,101.77,80.33A330.76,330.76,0,0,0,524.58,875a323.89,323.89,0,0,0,127-16.32C569.3,882.49,478.8,872.56,404.73,832c-37-20.25-70.15-47.28-96.67-79.84a319.85,319.85,0,0,1-58.64-110.24A328.66,328.66,0,0,1,236.31,518,334.32,334.32,0,0,1,247.56,456.39Z"/><path class="cls-2" d="M642,228.33c-7.85-2.29-15.83-4.21-23.85-5.85a326.81,326.81,0,0,0-145.95,3.15c-7.9,2.05-15.78,4.24-23.49,6.85-5.75,2-11.47,4-17.08,6.23,0,0,0,0,0,0-.35.11-.65.24-1,.38a324.72,324.72,0,0,0-66.68,35.41,324,324,0,0,0-57.42,50.69c-6.64,7.44-12.92,15.21-18.8,23.22,2.75,2.29,5.58,4.61,8.47,7a320.58,320.58,0,0,1,27.11-33.18q8.37-8.46,17.31-16.21c4.67-4.07,9.47-8,14.35-11.81,2.46-1.87,4.91-3.78,7.42-5.59s5-3.64,7.58-5.37a336.25,336.25,0,0,1,136.94-55.16c.68-.1,1.32-.21,2-.32,4.16-.49,8.28-.89,12.44-1.24q11.9-.88,23.81-1c7.93,0,15.89.14,23.79.68A329.58,329.58,0,0,1,616,232.7c7.74,1.67,15.46,3.51,23.07,5.77s15.18,4.64,22.6,7.45a316.16,316.16,0,0,1,36.82,16.29,51.43,51.43,0,0,0,8.66-7.31A331,331,0,0,0,665.38,236C657.72,233.1,649.89,230.62,642,228.33Z"/></g></g></svg>